<?xml version="1.0" encoding="UTF-8" standalone="no"?>
<svg
   version="1.1"
   id="Capa_1"
   x="0px"
   y="0px"
   viewBox="0 0 58 24.4"
   xml:space="preserve"
   width="58"
   height="24.4"
   sodipodi:docname="RouterIcon.svg"
   inkscape:version="1.2 (dc2aedaf03, 2022-05-15)"
   xmlns:inkscape="http://www.inkscape.org/namespaces/inkscape"
   xmlns:sodipodi="http://sodipodi.sourceforge.net/DTD/sodipodi-0.dtd"
   xmlns="http://www.w3.org/2000/svg"
   xmlns:svg="http://www.w3.org/2000/svg"><sodipodi:namedview
   id="namedview41"
   pagecolor="#ffffff"
   bordercolor="#666666"
   borderopacity="1.0"
   inkscape:showpageshadow="2"
   inkscape:pageopacity="0.0"
   inkscape:pagecheckerboard="0"
   inkscape:deskcolor="#d1d1d1"
   showgrid="false"
   inkscape:zoom="13.974138"
   inkscape:cx="23.114128"
   inkscape:cy="9.7322642"
   inkscape:window-width="1920"
   inkscape:window-height="974"
   inkscape:window-x="-11"
   inkscape:window-y="-11"
   inkscape:window-maximized="1"
   inkscape:current-layer="Capa_1" /><defs
   id="defs59" />

<g
   id="g9817"
   transform="translate(0,-18)"><g
     id="g9811"><path
       style="fill:#cacecf;fill-opacity:1;stroke-width:0.999996"
       d="M 13.45721,42.4 H 5.5427928 C 5.2430005,42.4 5,42.31103 5,42.201251 V 40.098749 C 5,39.98898 5.2430005,39.9 5.5427928,39.9 H 13.457053 C 13.757001,39.9 14,39.98898 14,40.098749 v 2.102444 C 14,42.311022 13.757001,42.4 13.45721,42.4 Z"
       id="path983" /><path
       style="fill:#cacecf;fill-opacity:1;stroke-width:0.999996"
       d="M 52.45721,42.4 H 44.542793 C 44.243,42.4 44,42.31103 44,42.201251 V 40.098749 C 44,39.98898 44.243,39.9 44.542793,39.9 h 7.91426 C 52.757001,39.9 53,39.98898 53,40.098749 v 2.102444 C 53,42.311022 52.757001,42.4 52.45721,42.4 Z"
       id="path1401" /></g></g><path
   style="fill:#2b3c50;fill-opacity:1;stroke-width:1"
   d="M 54.501999,22 H 3.4980002 C 1.566,22 -2.886211e-7,20.217252 -2.886211e-7,19.251252 V 2.549001 C -2.886211e-7,1.583001 1.566,0 3.4980002,0 H 54.500997 c 1.933001,0 3.499002,1.583001 3.499002,2.549001 v 16.701751 c 0,0.9665 -1.566001,2.749248 -3.498,2.749248 z"
   id="path4"
   sodipodi:nodetypes="sssssssss" /><ellipse
   style="fill:#ffd42a;fill-opacity:1;stroke:none;stroke-width:0.999996;stroke-linecap:round;stroke-linejoin:round"
   id="circle2251-7"
   cx="7.8013029"
   cy="12.779875"
   rx="1.8013027"
   ry="1.7798744" /><ellipse
   style="fill:#ffd42a;fill-opacity:1;stroke:none;stroke-width:0.999996;stroke-linecap:round;stroke-linejoin:round"
   id="ellipse1501"
   cx="17.801302"
   cy="12.779875"
   rx="1.8013027"
   ry="1.7798744" /><ellipse
   style="fill:#ffd42a;fill-opacity:1;stroke:none;stroke-width:0.999996;stroke-linecap:round;stroke-linejoin:round"
   id="ellipse1503"
   cx="27.801302"
   cy="12.779875"
   rx="1.8013027"
   ry="1.7798744" /><ellipse
   style="fill:#2ecc71;fill-opacity:1;stroke:none;stroke-width:0.999996;stroke-linecap:round;stroke-linejoin:round"
   id="ellipse1557"
   cx="37.801304"
   cy="12.779875"
   rx="1.8013027"
   ry="1.7798744" /><g
   id="g2515"
   transform="matrix(0.78378371,0,0,0.78378371,-9.2469302,-2.0398695)"
   style="stroke-width:0.63793109;stroke-dasharray:none"><ellipse
     style="fill:none;stroke:#839caa;stroke-width:0.63793109;stroke-linecap:round;stroke-linejoin:round;stroke-miterlimit:4;stroke-dasharray:none;stroke-opacity:1"
     id="path6111-6"
     ry="7.400001"
     rx="7.4000001"
     cy="16.637077"
     cx="74.315056"
     inkscape:export-filename="C:\Users\MalJ\OneDrive - Berufsschule Cham\Dokumente\Lernfeld_IT\10_Netzwerk\Bilder\switch.png"
     inkscape:export-xdpi="300"
     inkscape:export-ydpi="300" /><path
     id="path10969"
     style="fill:none;stroke:#839caa;stroke-width:0.63793109;stroke-linecap:round;stroke-linejoin:round;stroke-miterlimit:4;stroke-dasharray:none;stroke-opacity:1"
     d="m 70.495927,12.845297 2.842192,2.842195 m -1.187881,-2.842195 h -1.654311 l 2e-6,1.730373" /><path
     id="path10969-4"
     style="fill:none;stroke:#839caa;stroke-width:0.63793109;stroke-linecap:round;stroke-linejoin:round;stroke-miterlimit:4;stroke-dasharray:none;stroke-opacity:1"
     d="M 77.975497,20.327215 75.133305,17.48502 m 1.187882,2.842195 h 1.65431 l -2e-6,-1.73037" /><path
     id="path10969-2"
     style="fill:none;stroke:#839caa;stroke-width:0.63793109;stroke-linecap:round;stroke-linejoin:round;stroke-miterlimit:4;stroke-dasharray:none;stroke-opacity:1"
     d="m 75.570444,15.373312 2.842195,-2.842193 m -2.842195,1.187882 v 1.654311 l 1.730375,-2e-6" /><path
     id="path10969-8"
     style="fill:none;stroke:#839caa;stroke-width:0.63793109;stroke-linecap:round;stroke-linejoin:round;stroke-miterlimit:4;stroke-dasharray:none;stroke-opacity:1"
     d="M 72.954207,17.897507 70.112012,20.7397 m 2.842195,-1.187882 v -1.654311 l -1.730373,2e-6" /></g></svg>
